<svg width="390" height="800" fill="none" xmlns="http://www.w3.org/2000/svg"><path d="m142.771 281.359 14.295.796c-8.051-.983-14.295-.796-14.295-.796Z" fill="#0C0108"/><path d="M386.126 653.885 367.863 0H326.32l9.629 185.621-19.291-157.59 9.662 128.145-32.224-144.198L293.299 0h-21.304l3.196 114.796L256.022.032V0h-45.393l10.894 17.038 5.103 21.96 2.283 24.53-4.793-6.704-3.113 1.82 9.026 16.905 7.246 77.838-2.005-1.389-13.488-18.203-18.417-62.669 8.301-20.802-17.638-40.567 8.559 27.824-15.303-26.264L187.025 0h-7.523l1.557 5.336L172.239 0h-7.523l14.526 9.236 14.786 26.784 2.854 15.603-6.745 10.92-10.635-14.042-24.901-13.782L129.958 0h-5.447l10.635 13.916-14.525-4.16L115.432 0h-5.966l1.815 8.976-6.225-5.255h-2.334l6.225 8.116 15.564 3.641 8.301 2.861 6.484 11.962-19.455-4.16-24.902-15.603-14.266-.78s-10.377-5.46-11.155-5.981c-.778-.52-19.713 2.86-19.713 2.86L38.13 3.778H35.02l12.97 5.201 19.971-1.56 6.745 5.722-15.045.78-3.632-2.081-21.27 7.02-5.966-5.721-.778 3.64 2.335 3.901-10.377-3.9h-4.668l3.89 3.38L0 31.34l22.307-9.361 5.966 1.3-3.371 4.162s-17.899 5.981-16.86 6.24c1.037.26 18.157-3.9 18.935-4.42.778-.52 5.966-4.68 5.966-4.68l24.383-6.241 11.671 1.82 21.011-1.82 21.789 13.522 10.116 9.36 12.45-.259 29.829 21.844-6.225 3.9-19.194-3.9-19.189-17.685-2.076.52 12.191 14.303-11.932-4.94-3.632.52 4.151 3.12-11.413.78-10.116-6.24-4.668-15.603-3.373-.26-.778 3.382-7.523-8.062-2.334 1.04 9.598 11.7 4.669 9.882-14.526-3.12-3.112-8.321-6.745-4.421L62 31.34l-5.188-5.46h-2.334l4.929 5.72 3.632 7.802-7.003-6.502-10.116-1.3-2.334 1.3 12.448 2.339 3.89 5.721-3.89.52v2.082l11.154-.521 3.632 5.722-3.632 3.64v5.201l5.966 1.56 11.154 4.681 15.823-1.04 4.928 4.16h-2.593l-2.335 1.82 5.967.78 26.199-.78 14.266 6.502 22.567 4.16 12.45 3.12 12.452 15.342 7.523 28.605-2.076 7.801 10.376 17.423-2.593 3.379-15.045-7.02-4.151-10.069 5.966-21.396 1.298-6.761-1.037-2.599-2.076 6.501-2.593-2.599 1.815-12.743-3.891 13.263 1.815 5.981-6.354 13.002-1.179-1.9.958-18.319-3.812 3.317.259 10.823-11.4-18.364-4.151-16.123-9.338-10.402h-2.334l9.078 11.963 2.335 12.742-19.714-8.842-9.598-11.962-4.151-1.3 7.523 13.521-11.155-10.661-17.12-7.02 14.267 7.8-17.379 1.82h12.191l21.011 11.962 18.935 12.481 8.82 12.222-10.894-2.861-1.003-.604-5.316-13.394 4.156 12.697-17.291-10.4h-9.598l-1.037 1.56h9.598l19.454 13.002.261.07 10.842 33.129 18.818 17.813-3.364 3.984-20.167-4.757-12.338-13.96-18.401-6.444 1.574 2.331 14.78 5.745 1.435 6.066-13.367-2.577 1.744 2.942 15.37 2.675 6.95 7.42-11.279 1.589.74 2.169 7.444-1.169-17.202 5.367 1.747 2.943 21.581-7.128 18.808 1.31 14.554 27.993-8.226 8.257-22.546 4.626-15.454-14.27-6.051-6.089-.257 2.845-10.785-14.528-10.079-1.655 9.489 4.726 2.496 6.56-28.543-1.741 30.301 6.132 13.42 9.825-10.432 3.199-17.877 4.37 2.688 2.545 26.541-5.883 9.339 7.012-7.991 10.039-14.963-.28.3 2.952 6.126 1.182-4.435 9.566 3.341 15.697 1.371-2.63-1.478-11.864 8.772-9.6 6.661-1.61 8.269-9.985 19.943-3.103 10.325 4.886 2.935 5.776-13.72 2.276-12.145-2.922-1.038 2.404 9.757 3.329-15.808 5.637 3.352 2.093 29.412-8.803 21.11 19.414-2.732 6.71-11.375 3.596-10.978-2.986-1.425 2.909 8.803 2.276-2.292 5.927-15.927 4.744-9.982-3.662-4.573-9.277-10.324-4.886 1.917 3.555 7.872 4.123 1.446 7.515-13.134-.73c5.179.633 11.105 1.749 16.605 3.716l14.052 5.026 12.147-4.605 6.619.119 7.456-7.248 24.869-13.733.877 5.959 3.825-3.304 6.357 20.605 6.038 64.851-40.637 5.741v8.331l35.95-7.026 5.313-.328 21.064 226.255c-10.924-8.186-17.589-10.887-17.589-10.887 5.53 3.208 11.677 8.88 18.073 16.081l12.157 130.578-11.858 31.37-7.989-63.271-11.984 83.293-19.972-141.942 7.19 142.743c-4.794-26.429-22.369-65.673-22.369-65.673 8.815 23.636 9.586 65.673 9.586 65.673l-41.63-10.2 21.658 10.2c21.658 10.201-79.091 12.014-79.091 12.014l23.28-12.014c-43.827.801-126.027 26.43-126.027 26.43h359.193V662.686l-4.106-8.801ZM166.384 149.27l-9.685-24.406 10.871 2.952 3.296 3.717.746 2.534.921 19.285-6.149-4.082Zm17.124 14.69-5.15-4.855-2.144-21.542 5.882 6.634v7.801l1.556 8.062 5.058 3.9h-5.202Zm36.208 79.211-7.743-4.919-1.558-3.902 13.311 8.403-4.01.418Zm7.96 5.057-4.856-3.085 5.188-.441 2.16 2.613-2.492.913Zm8.224-11.106-6.307-7.919-2.12-8.515-19.182-14.411-.824 1.287 17.125 14.593-.086 3.457-2.518-.486-2.151-3.05-2.334.39.69 1.928-2.042-.394-3.427-4.714 1.66 6.399 5.237 2.699 3.329 9.294-15.202-10.015-5.917-14.819-4.957-31.354-1.467-10.415-2.378 1.858-4.863-4.584c5.675.602 15.717 1.459 15.717 1.459l20.233 15.603 12.062 32.376-.278 19.333ZM297.399 61.65l13.742 80.109-2.396 18.421h7.913l27.548 184.635.665 12.816-28.289-7.519L297.399 61.65Zm42.624 640.96-1.211-18.218c5.17 9.405 8.28 15.425 8.28 15.425l-7.069 2.793Zm15.069-19.378c-6.2-11.306-12.361-21.469-18.394-30.611l-18.474-277.806 8.096 12.02 20.303 4.595 10.375 200.02-15.499-33.223c13.168 31.423 13.593 125.005 13.593 125.005Z" fill="#0C0108"/></svg>