<svg width="114" height="93" fill="none" xmlns="http://www.w3.org/2000/svg"><path d="M35.991 63.746 0 69.885c4.939 2.903 9.85 5.545 14.789 8.448 3.952-1.15 7.631-2.386 11.379-4.09-2.887 1.707-5.355 4.129-7.207 6.924 5.717 3.783 12.525 5.429 19.166 7.13 9.267 2.375 18.74 4.768 28.277 4.023-.482-3.773-.016-7.66-.498-11.433a54.506 54.506 0 0 0 5.075 8.603c5.154 1.743 10.598-.55 15.357-3.187a211.531 211.531 0 0 0 27.672-18.32c-25.461-.607-52.915-8.518-78.019-4.237Z" fill="indigo"/><path d="M102.718 19.644c-.307-1.617-.789-2.861-2.286-3.683 1.356 2.036 1.249 4.936-.254 6.867-1.502 1.93-4.287 2.747-6.594 1.932-2.589-.914-4.181-3.455-5.571-5.823-2.12-3.612-4.274-7.317-5.193-11.386a3.874 3.874 0 0 0-.775-1.626l-3.792-4.583a3.7 3.7 0 0 0-4.429-.988L47.702 12.668c-2.466 1.162-5.172 2.587-6.02 5.178-.853 2.606.506 5.362.844 8.083.431 3.477-.836 6.94-2.401 10.076-1.565 3.135-3.462 6.142-4.445 9.506-.982 3.363-1.208 7.873.941 10.64a62.634 62.634 0 0 1-7.059 11.593c18.788 5.879 39.784 6.287 58.521.246-7.867-7.213-13.099-17.24-14.516-27.818-.401-2.993-.547-6.151-2.106-8.738-.857-1.422-2.096-2.583-2.958-4.002-1.44-2.37-1.701-5.42-.686-8 .578-1.468 1.784-2.804 3.221-3.763 3.23-2.157 7.625-.602 8.812 3.097.77 2.4.958 5.089 2.518 7.068 1.282 1.627 3.332 2.508 5.386 2.779 2.054.27 4.137-.004 6.184-.321 2.787-.432 5.786-1.062 7.58-3.287 1.201-1.494 1.558-3.48 1.2-5.361Z" fill="indigo"/><path d="m50.7 60.611-1.24 10.042 2.12.262 1.24-10.042-2.12-.262ZM63.57 70.679a56.287 56.287 0 0 0-2.2-10.023l2.034-.647a58.333 58.333 0 0 1 2.284 10.405l-2.118.265Z" fill="indigo"/><path d="m51.968 64.587-.244 2.121 4.25.49.245-2.122-4.25-.489Z" fill="indigo"/></svg>