<svg width="206" height="162" fill="none" xmlns="http://www.w3.org/2000/svg"><path d="m133.725 26.305 4.273-1.899-2.137 3.419s16.761-5.603 19.514-8.831c0 0 21.461-6.078 30.198-1.14 0 0-18.138-1.045-20.227 6.742 0 0-19.562 0-25.355 3.988-5.793 3.988-9.116 8.167-9.116 8.167v-5.033l-3.988 3.798s1.709-5.508-1.804-11.111c-3.514-5.603-9.211-10.541-9.211-10.541s1.614-5.413-1.14-8.641C111.978 1.994 108.56 0 108.56 0s15.764 4.748 17.378 12.44c0 0 1.329 8.546 4.273 13.295l1.899-3.703 1.615 4.273ZM188.769 157.695l1.284-1.059-.406 1.376s5.211-3.519 5.848-4.889c0 0 6.778-4.13 10.244-3.271 0 0-6.318 1.372-6.291 4.241 0 0-6.706 1.866-8.312 3.785-1.605 1.92-2.346 3.669-2.346 3.669l-.48-1.725-1.005 1.683s.061-2.051-1.678-3.637c-1.739-1.586-4.163-2.735-4.163-2.735s.037-2.01-1.215-2.854c-1.252-.844-2.614-1.202-2.614-1.202s5.857.124 7.144 2.607c0 0 1.271 2.803 2.733 4.15l.298-1.451.959 1.312ZM0 77.384s5.29 1.953 7.325 4.802c0 0 .895 4.639 2.93 6.348v-1.383l.732 1.384.488-2.116.407 2.116s2.767-7.488 2.604-10.092c0 0 3.255-4.72 6.43-5.046 0 0-3.988 3.825-3.174 7.569 0 0-5.941 6.836-5.697 11.638 0 0-4.639-5.453-7.325-7.081 0 0-.732-6.185-4.72-8.139ZM23.107 35.562s6.172 7.192 6.832 13.038c0 0-2.477 7.544-.886 11.717l1.131-2.032-.055 2.63 2.447-2.708-1.132 3.44s10.183-8.734 12.073-12.691c0 0 8.639-4.271 13.566-2.155 0 0-8.982 2.358-10.847 8.521 0 0-14.312 5.184-17.878 12.434 0 0-2.356-11.799-4.969-16.384-.002-.001 3.978-9.683-.282-15.81Z" fill="red"/></svg>