<svg width="42" height="95" viewBox="0 0 42 95" fill="chartreuse" xmlns="http://www.w3.org/2000/svg">
<path d="M39.3434 14.5374C38.6594 13.5594 37.7304 14.6354 37.4864 14.6844C37.2414 14.7334 37.6824 16.1024 37.6824 16.1024C37.6824 16.1024 36.2644 14.3414 36.6074 16.3464C36.7454 17.1534 36.9144 18.1634 37.0674 19.0854C36.5464 20.3464 36.0234 22.6244 35.5474 26.3374C35.5474 26.3374 32.3434 29.9664 30.1004 25.3744C27.8584 20.7824 33.1974 13.4144 34.2654 13.2004C34.9174 13.0694 37.2004 12.7794 38.4914 12.1354C38.5314 12.1854 38.5724 12.2334 38.6114 12.2874C39.7364 13.8524 39.2464 11.7504 39.2464 11.7504C39.2464 11.7504 39.7844 12.3374 39.9804 12.4344C40.1754 12.5324 41.8384 11.6524 41.8384 11.6524C41.8384 11.6524 40.3724 9.69738 37.9764 9.35438C37.2214 9.24638 36.6464 9.34236 36.2404 9.52936C34.1824 9.62936 31.8134 10.7344 31.0614 12.2384C29.8874 14.5874 29.2454 19.9274 28.6054 20.7814C27.9644 21.6354 29.2454 12.3454 32.0224 5.61738C32.5814 4.26338 32.5374 3.44137 32.1544 3.10737C32.1854 3.10137 32.2064 3.09638 32.2064 3.09638C32.2064 3.09638 35.3844 1.63037 35.0904 1.18937C34.7974 0.749368 33.8194 -0.130636 32.8904 0.0163644C31.9614 0.163364 31.4244 0.895362 31.4244 0.895362C31.4244 0.895362 32.3044 -0.521613 30.1044 1.43339C27.9044 3.38939 28.4424 5.58936 28.4424 5.58936C28.4424 5.59536 28.4424 5.60137 28.4424 5.60737C26.5834 8.50837 25.1674 13.7004 27.1094 20.8884C27.1094 20.8884 23.2654 15.7624 23.4794 13.5194C23.6404 11.8224 24.7784 8.29538 24.5854 7.13938C24.8494 6.26238 27.0244 5.19837 27.0244 5.19837C27.0244 5.19837 26.8774 4.65938 26.5844 4.41538C26.2914 4.17138 26.0954 4.41538 25.9494 4.36738C25.8024 4.31838 26.0954 3.92637 26.0954 3.92637C26.0954 3.92637 25.3624 3.24239 23.4554 5.88139C22.0744 7.79339 22.1814 8.60037 22.3454 8.90137C21.1674 11.1154 20.3054 14.4114 21.1304 15.7614C22.3054 17.6834 25.9374 20.7814 26.2564 21.4214C26.5764 22.0624 20.5964 18.4314 18.6734 16.6164C18.2494 16.2154 17.8774 16.0544 17.5804 16.0534C17.3154 15.6684 16.9704 15.0414 16.7074 14.0954C16.2194 12.3354 15.8274 13.6064 15.8274 13.6064L15.2404 12.6774C15.2404 12.6774 13.6754 14.3394 13.7254 15.2194C13.7744 16.0994 14.9474 16.3434 15.1434 16.6364C15.3394 16.9304 14.4104 16.4894 14.4104 16.4894C14.4104 16.4894 16.4214 18.6124 17.7694 18.8174C18.0824 19.1884 18.4794 19.5654 18.9944 19.9254C22.1984 22.1674 25.8294 21.4204 26.6834 22.5954C27.5374 23.7704 28.0714 25.9064 27.6444 26.2264C27.2174 26.5464 9.06241 37.6534 6.92641 43.5274C4.79041 49.4014 7.4604 48.1194 7.4604 48.1194C7.4604 48.1194 11.0654 61.2114 13.0674 69.0944C11.7714 69.8254 7.5374 71.1484 8.5464 72.9134C9.0634 73.8184 9.58141 74.1314 9.99941 74.1964C8.70941 74.5794 6.58139 75.3744 7.21239 76.3214C7.35139 76.5294 7.41939 76.6314 7.44539 76.6704C7.31039 76.4684 6.32341 74.9884 6.32341 74.9884C6.32341 74.9884 -0.935605 73.3594 0.101395 76.9154C0.875395 79.5704 6.10838 78.4254 8.71138 77.6754C6.48938 79.3284 4.31239 81.0304 2.39439 82.9924C2.07339 83.3204 2.57639 83.8244 2.89839 83.4964C3.79639 82.5774 4.75441 81.7194 5.74141 80.8924C5.77841 80.9064 5.8174 80.9184 5.8644 80.9194C7.3054 80.9414 8.27739 82.3154 8.70039 83.5544C9.18539 84.9744 9.18339 86.6594 8.23839 87.8914C8.20639 87.9334 8.1894 87.9744 8.1794 88.0144C6.5704 89.9944 4.67139 91.7164 3.41139 93.9694C3.18739 94.3694 3.80238 94.7294 4.02638 94.3284C4.53238 93.4224 5.14738 92.6104 5.80238 91.8314C5.85038 91.8364 5.9024 91.8324 5.9594 91.8114C9.6624 90.4374 14.0704 91.2694 17.0354 93.8744C17.0094 93.9944 16.9904 94.1144 16.9634 94.2344C16.8624 94.6804 17.5484 94.8714 17.6504 94.4234C17.6794 94.2934 17.7014 94.1624 17.7294 94.0324C17.8364 93.9314 17.8824 93.7784 17.8084 93.6394C18.0154 92.6254 18.1914 91.6054 18.3424 90.5814C19.2254 89.6674 20.4974 89.1954 21.7284 88.9824C23.0444 88.7544 24.5084 88.8224 25.7084 89.4514C25.7664 89.4824 25.8234 89.4914 25.8774 89.4914C25.8814 90.0904 25.8894 90.6904 25.8894 91.2894C25.8894 91.7474 26.6014 91.7484 26.6014 91.2894C26.6004 89.5244 26.5784 87.7584 26.5574 85.9934C27.8094 85.3974 29.2474 85.0444 30.6194 85.3754C31.0644 85.4824 31.2544 84.7964 30.8084 84.6884C29.3684 84.3414 27.8864 84.6384 26.5484 85.2174C26.5284 83.4814 26.5174 81.7454 26.5284 80.0094C26.7594 79.8894 26.9894 79.7064 27.2134 79.4334C29.2874 76.9154 27.8064 73.0624 26.9174 73.5074C26.8894 73.5214 26.8764 73.5254 26.8554 73.5334C26.9634 73.4394 27.0794 73.3564 27.2034 73.2844C27.5204 73.0984 27.8684 72.9774 28.2224 72.8834C28.9434 72.7554 29.7724 72.8844 30.3244 73.8034C30.6284 74.3104 31.1724 74.5684 31.8144 74.6474C32.0894 75.8674 32.3344 77.0934 32.5164 78.3324C32.5824 78.7844 33.2694 78.5924 33.2034 78.1434C33.0324 76.9744 32.8044 75.8174 32.5484 74.6654C34.6454 74.5284 37.1704 72.9534 36.2514 71.7284C35.1804 70.3004 32.8704 71.3574 31.9244 72.0584C31.4364 70.1584 30.8364 68.2574 30.5574 66.3154C29.9774 62.2814 29.9074 58.1884 29.0914 54.1864C29.0514 53.9894 28.8964 53.9214 28.7434 53.9384C30.1374 51.0654 31.4114 48.1364 32.5004 45.1274C34.2684 40.2384 35.5024 35.1594 35.8984 29.9674C35.9024 29.9194 35.8934 29.8794 35.8824 29.8414C38.0264 29.2524 39.9504 27.6694 40.2474 25.5864C40.4324 24.2884 40.1804 21.9744 39.6824 20.2034C39.8744 18.3294 39.8634 15.2804 39.3434 14.5374ZM26.7914 62.0404C26.6544 63.5094 26.5474 64.9814 26.4474 66.4544C26.0684 66.0114 25.5904 65.6604 25.0254 65.4264C24.5814 65.2424 24.1084 65.1374 23.6304 65.1024C23.4064 64.9614 23.1744 64.8334 22.9344 64.7194C24.3964 62.2014 25.8204 59.6604 27.1644 57.0784C27.2844 58.7264 26.9444 60.4034 26.7914 62.0404ZM14.3934 79.2634C14.6174 79.8764 15.0864 80.5454 15.9914 81.0784C15.0704 81.0304 14.1294 81.2144 13.2324 81.4064C13.6214 80.6924 14.0074 79.9774 14.3934 79.2634ZM19.1124 81.8844C19.0304 82.2354 18.9494 82.5874 18.8714 82.9404C18.6684 82.5004 18.3924 82.1134 18.0334 81.8064C18.4044 81.8674 18.7654 81.8934 19.1124 81.8844ZM24.8524 68.8244C25.4044 68.1664 25.7614 67.2264 24.8764 66.1524C25.5254 66.4534 26.0624 66.9534 26.3664 67.6484C26.3384 68.0684 26.3094 68.4874 26.2814 68.9074C25.6784 68.7524 25.2154 68.7494 24.8524 68.8244ZM6.47539 80.2824C7.72839 79.2694 9.0254 78.3034 10.3264 77.3424C10.8734 77.7974 12.7814 79.3004 13.7674 78.9824C13.4214 79.6014 13.0714 80.2194 12.7324 80.8434C11.7864 82.5824 10.8114 84.3144 9.7014 85.9554C9.7894 85.0234 9.64541 84.0574 9.32741 83.2054C8.83941 81.8974 7.86639 80.6004 6.47539 80.2824ZM6.66039 90.8434C7.36139 90.0594 8.07639 89.2844 8.73839 88.4594C10.2214 86.6104 11.4624 84.5894 12.6184 82.5244C12.6944 82.3884 12.7684 82.2504 12.8434 82.1134C12.9144 82.1584 13.0034 82.1814 13.1074 82.1594C14.2094 81.9234 15.4224 81.6234 16.5494 81.8574C17.0474 81.9604 17.4934 82.1804 17.8354 82.5624C18.2844 83.0654 18.4654 83.7544 18.5674 84.4044C18.4084 85.2104 18.2604 86.0184 18.1464 86.8314C17.8554 88.9164 17.5954 91.0114 17.1934 93.0784C14.3034 90.7334 10.2534 89.8584 6.66039 90.8434ZM25.8694 88.7484C24.5614 88.1294 23.0564 88.0534 21.6424 88.2794C20.5434 88.4544 19.4064 88.8444 18.4904 89.5114C18.6054 88.6804 18.7174 87.8494 18.8334 87.0194C19.0784 85.2674 19.4534 83.5364 19.8594 81.8134C21.9554 81.4664 23.3664 79.9514 23.0644 78.8434C23.0374 78.7444 23.0214 78.6694 23.0154 78.6144C23.0704 78.5964 23.1244 78.5764 23.1804 78.5604C23.5824 78.8714 24.6574 80.1884 25.8254 80.1884C25.8144 81.1954 25.8084 82.2034 25.8164 83.2124C25.8304 85.0584 25.8534 86.9034 25.8694 88.7484ZM31.1604 71.9664C30.7934 71.4634 29.9754 70.6674 28.1004 69.6574C27.6854 69.4334 27.3144 69.2684 26.9724 69.1364C27.0004 68.7294 27.0304 68.3224 27.0594 67.9144C27.1344 67.8394 27.1724 67.7324 27.1224 67.5964C27.1124 67.5694 27.0994 67.5444 27.0884 67.5174C27.2084 65.8664 27.3344 64.2164 27.4604 62.5674C27.4724 62.4104 27.4904 62.2534 27.5054 62.0954C27.6094 62.1514 27.7344 62.1574 27.8524 62.0984C28.1114 61.9694 28.3804 61.8584 28.6434 61.7374C28.8684 61.6334 29.1184 61.5254 29.3094 61.3594C29.4674 63.0784 29.6224 64.7974 29.8684 66.5064C30.1344 68.3534 30.6874 70.1604 31.1604 71.9664ZM29.2544 60.7624C29.1214 60.7004 28.9644 60.7164 28.8514 60.8264C28.8514 60.8264 28.8494 60.8284 28.8474 60.8294C28.8354 60.8374 28.8234 60.8464 28.8104 60.8544C28.7624 60.8844 28.7134 60.9114 28.6634 60.9384C28.5334 61.0074 28.3994 61.0704 28.2654 61.1324C28.0354 61.2384 27.8014 61.3394 27.5724 61.4494C27.7854 59.6294 28.0834 57.7874 27.7264 55.9824C27.9654 55.5124 28.2024 55.0404 28.4354 54.5674C28.8424 56.6144 29.0604 58.6864 29.2544 60.7624ZM27.2274 55.3834C27.0584 55.4324 26.9174 55.5894 26.9724 55.8094C26.9764 55.8274 26.9784 55.8454 26.9824 55.8634C26.8684 56.0874 26.7554 56.3124 26.6394 56.5354C25.2524 59.2124 23.7724 61.8354 22.2604 64.4414C20.4704 63.8104 18.3954 63.8614 16.7064 64.5284C13.7364 57.0214 10.0804 47.2614 10.6634 46.0954C11.6244 44.1734 20.0614 33.9204 24.9734 29.5414C29.8864 25.1624 28.1774 26.7644 31.0604 29.1144C32.1634 30.0134 33.6884 30.2514 35.1814 29.9994C34.4924 38.9464 31.2494 47.4324 27.2274 55.3834Z" fill="chartreuse"/>
</svg>
