<svg width="82" height="61" fill="none" xmlns="http://www.w3.org/2000/svg"><path d="M75.09 10.448c-7.765-1.12-10.76 5.806-13.976 6.213-2.25.285-3.629-1.62-4.256-2.793C55.268 6.846 51.356.212 42.228.008 31.981-.223 26.758 5.09 24.61 13.332c.02-.212.03-.339.03-.339s-1.442 4.074-4.658 3.667c-3.217-.407-6.212-7.334-13.976-6.213C-1.758 11.568.017 22.57.571 26.95c.555 4.38 2.33 4.89 3.882.305 1.553-4.583 5.435-6.417 5.435-1.63s2.773 6.315 3.66 2.546c.887-3.769 3.217-1.833 3.438.306.223 2.14.665 3.26 1.886 3.361 1.22.102 1.11-1.833 1.442-4.278.32-2.34 2.846-1.854 2.868.872-.405 10.644-.753 20.008-.753 20.008-.166 4.736 2.33 3.21 2.33 1.833 0-1.375 0-3.36.831-3.82.832-.458.666 3.21.998 5.5.333 2.292 3.328 1.528 3.162-2.139-.166-3.667 1.83-3.514 1.83-1.069s-.166 6.57 1.497 5.96c1.663-.612 1.33-3.057 1.496-7.64.166-4.584 2.163-4.736 2.163-1.375 0 3.361-1.33 14.362 2.995 14.514 4.326.153 4.16-9.778 4.326-15.737.166-5.959 5.158-6.264 4.825 0-.333 6.264 1.332 10.39 2.829 8.71 1.497-1.682.665-7.946.831-9.932.166-1.986 2.495-1.833 2.662 1.833.166 3.667 1.998 4.584 2.33 1.375.273-2.642.321-10.254.33-17.807.053.532.07.65.032.135-.222-3.056 2.551-3.667 2.884-1.222.333 2.445.222 4.38 1.442 4.278 1.22-.102 1.664-1.222 1.886-3.36.222-2.14 2.551-4.075 3.438-.307.887 3.77 3.66 2.241 3.66-2.546s3.882-2.954 5.435 1.63c1.553 4.584 3.327 4.074 3.882-.305.555-4.379 2.33-15.38-5.434-16.5Zm-43.116 9.444c-1.547 2.454-3.658.13-2.11-4.263 1.547-4.392 6.33-6.2 8.581-3.746 2.251 2.454-.563 4.78-2.39 5.038-1.83.258-4.08 2.971-4.08 2.971ZM42.588 30.6c-2.098 2.84-5.03 4.374-6.552 3.426-1.52-.947-1.053-4.017 1.045-6.857s5.031-4.374 6.552-3.426c1.521.947 1.053 4.017-1.045 6.857Zm6.48-10.839s-1.72-2.56-3.118-2.804c-1.397-.244-3.546-2.438-1.827-4.755 1.72-2.316 5.373-.61 6.555 3.536 1.183 4.145-.429 6.34-1.61 4.023Z" fill="#000"/></svg>