<svg width="580" height="800" fill="none" xmlns="http://www.w3.org/2000/svg"><path d="m410.769 790.094-91.692-35.21v24.54l-16.068-19.206 4.581 14.938-27.182-10.456-3.499-11.58 54.011-19.575c-18.207 1.937-38.518 4.184-57.997 6.375l-18.768-62.125-55.147-25.859-40.76 36.262 9.074 41.055c-26.079-20.332-54.364-24.518-54.364-24.518l35.184-8.957c-35.148-11.093-78.342-16.65-78.342-16.65l32.502-16.005c-16.516-2.307-34.404-.31-50.545 3.179l54.493-413.343 9.773-1.682 6.745-16.264 34.377-17.488 16.44-.677 33.747-29.885-2.053-2.009-33.301 26.025-6.315-1.469 6.132-14.785 9.956-4.528-12.381.631-14.287 17.75-19.302 7.577-11.934-3.228-.909-6.157 24.282-25.153 50.5-9.051 59.453 2.761 19.682 1.249-2.506-5.087 30.968-21.795 51.993 5.439 1.819 12.312 33.835 8.866-4.643-8.285-24.687-4.486-3.908-11.448 30.001-8.329-35.869 2.999-35.758-5.622 9.827-9.782 82.842-14.673-98.139 11.201-39.859 27.922-6.036-7.711 16.399-35.364 30.318-17.442 18.822-31.466-4.877 2.018-16.164 25.06-11.685.342 9.812-23.656-6.065 2.101-10.749 27.312-16.265 9.995 1.368-21.388-4.263.539-.679 14.164-3.32-33.74-6.065 2.102 4.889 42.481-9.553 34.165-56.927 16.202-12.035-18.294.07-43.308 32.075-23.07 13.478-8.842-5.126-1.554 30.773-14.364 6.867-17.947-12.281 15.695-12.994 2.11L256.595 0l-22.772 53.516-23.139 21.005-1.911-20.441-1.23-34.604-5.694 3.988.718 51.148-16.425 14.551-15.396-18.536 6.199-27.47-5.536-.569-4.496 10.843-15.881-11.803-16.934.114L139.598 0h-18.115L103.16 78.48l-7.67 9.4-2.78-.037V45.455c1.136-4.782 1.654-7.739 1.654-7.739l-1.653 6.249V0H57.545L8.668 679.682C3.208 681.886 0 683.396 0 683.396V800.23h580l-176.123-29.341 6.892 19.205ZM147.592 47.135l14.292 19.81.425 12.89 15.194 19.029-1.882 37.932-12.893 17.175-11.721 3.217 1.034-26.15 9.977-21.277-4.02-2.828-9.821 16.72-4.343-31.276-5.118 5.384 4.989 57.546-27.168 19.623 16.995-128.914 14.06 1.12Zm-47.18 42.79.109-.146-7.81 33.456V91.938l7.701-2.013Z" fill="#0C0108"/><path d="M16.673 0 0 268.085V800.02L51 0H16.673ZM288.002 194.918c-.245-8.985-11.993-18.918-11.993-18.918s-11.749 9.934-11.993 18.918c-.245 8.985 2.448 11.677 2.448 11.677s-4.651 14.93.245 12.483c4.895-2.448 6.853-5.385 6.853-5.385l2.448.245 2.448-.245s1.958 2.937 6.853 5.385.245-12.483.245-12.483 2.691-2.693 2.446-11.677Z" fill="#0C0108"/><path d="m410.769 790.094-91.692-35.21v24.54l-16.068-19.206 4.581 14.938-27.182-10.456-3.499-11.58 54.011-19.575c-18.207 1.937-38.518 4.184-57.997 6.375l-18.768-62.125-55.147-25.859-40.76 36.262 9.074 41.055c-26.079-20.332-54.364-24.518-54.364-24.518l35.184-8.957c-35.148-11.093-78.342-16.65-78.342-16.65l32.502-16.005c-16.516-2.307-34.404-.31-50.545 3.179l54.493-413.343 9.773-1.682 6.745-16.264 34.377-17.488 16.44-.677 33.747-29.885-2.053-2.009-33.301 26.025-6.315-1.469 6.132-14.785 9.956-4.528-12.381.631-14.287 17.75-19.302 7.577-11.934-3.228-.909-6.157 24.282-25.153 50.5-9.051 59.453 2.761 19.682 1.249-2.506-5.087 30.968-21.795 51.993 5.439 1.819 12.312 33.835 8.866-4.643-8.285-24.687-4.486-3.908-11.448 30.001-8.329-35.869 2.999-35.758-5.622 9.827-9.782 82.842-14.673-98.139 11.201-39.859 27.922-6.036-7.711 16.399-35.364 30.318-17.442 18.822-31.466-4.877 2.018-16.164 25.06-11.685.342 9.812-23.656-6.065 2.101-10.749 27.312-16.265 9.995 1.368-21.388-4.263.539-.679 14.164-3.32-33.74-6.065 2.102 4.889 42.481-9.553 34.165-56.927 16.202-12.035-18.294.07-43.308 32.075-23.07 13.478-8.842-5.126-1.554 30.773-14.364 6.867-17.947-12.281 15.695-12.994 2.11L256.595 0l-22.772 53.516-23.139 21.005-1.911-20.441-1.23-34.604-5.694 3.988.718 51.148-16.425 14.551-15.396-18.536 6.199-27.47-5.536-.569-4.496 10.843-15.881-11.803-16.934.114L139.598 0h-18.115L103.16 78.48l-7.67 9.4-2.78-.037V45.455c1.136-4.782 1.654-7.739 1.654-7.739l-1.653 6.249V0H57.545L8.668 679.682C3.208 681.886 0 683.396 0 683.396V800.23h580l-176.123-29.341 6.892 19.205ZM147.592 47.135l14.292 19.81.425 12.89 15.194 19.029-1.882 37.932-12.893 17.175-11.721 3.217 1.034-26.15 9.977-21.277-4.02-2.828-9.821 16.72-4.343-31.276-5.118 5.384 4.989 57.546-27.168 19.623 16.995-128.914 14.06 1.12Zm-47.18 42.79.109-.146-7.81 33.456V91.938l7.701-2.013Z" fill="#0C0108"/><path d="M16.673 0 0 268.085V800.02L51 0H16.673ZM288.002 194.918c-.245-8.985-11.993-18.918-11.993-18.918s-11.749 9.934-11.993 18.918c-.245 8.985 2.448 11.677 2.448 11.677s-4.651 14.93.245 12.483c4.895-2.448 6.853-5.385 6.853-5.385l2.448.245 2.448-.245s1.958 2.937 6.853 5.385.245-12.483.245-12.483 2.691-2.693 2.446-11.677Z" fill="#0C0108"/><path d="M272.195 209.342a2.5 2.5 0 1 0 0-5 2.5 2.5 0 0 0 0 5ZM280.57 209.342a2.5 2.5 0 1 0 0-5 2.5 2.5 0 0 0 0 5Z" fill="#F3D472"/><path d="M272.195 209.342a2.5 2.5 0 1 0 0-5 2.5 2.5 0 0 0 0 5ZM280.57 209.342a2.5 2.5 0 1 0 0-5 2.5 2.5 0 0 0 0 5Z" fill="#F3D472"/></svg>