<svg width="40" height="30" fill="none" xmlns="http://www.w3.org/2000/svg"><path d="M39.979 9.515a5.63 5.63 0 0 0-.016-.169c-.178-2.42-1.303-4.687-3.15-6.344S32.535.42 30.007.414h-20c-2.563-.01-5.032.93-6.89 2.624C1.256 4.733.152 7.05.032 9.509c-.02.152-.026.31-.026.486v12.5c0 1.775.746 3.509 2.044 4.753a7.2 7.2 0 0 0 4.956 1.966c3.6 0 5.008-1.92 7-5.76.292-.56 1.984-3.84 6-3.84 3.992 0 5.706 3.278 6 3.84 2.008 3.84 3.4 5.76 7 5.76 1.85 0 3.656-.716 4.952-1.962a6.631 6.631 0 0 0 2.048-4.758v-12.48c0-.182-.008-.345-.028-.499Zm-29.972 4.399a4.147 4.147 0 0 1-1.558-.267 4.02 4.02 0 0 1-1.329-.826 3.837 3.837 0 0 1-.89-1.256 3.708 3.708 0 0 1 0-2.979c.206-.471.508-.898.89-1.256.38-.358.831-.639 1.327-.827a4.148 4.148 0 0 1 1.558-.267 4.08 4.08 0 0 1 2.77 1.153 3.762 3.762 0 0 1 1.141 2.685 3.762 3.762 0 0 1-1.139 2.685 4.08 4.08 0 0 1-2.77 1.155Zm20-9.6c.53 0 1.039.202 1.414.562.375.36.586.849.586 1.358 0 .509-.21.997-.586 1.357-.375.36-.884.563-1.414.563-.53 0-1.04-.202-1.414-.563a1.882 1.882 0 0 1-.586-1.357c0-.51.21-.998.586-1.358.375-.36.883-.562 1.414-.562Zm-4 7.68c-.53 0-1.04-.203-1.414-.563a1.882 1.882 0 0 1-.586-1.357c0-.51.21-.998.586-1.358.375-.36.883-.562 1.414-.562.53 0 1.039.202 1.414.562.375.36.586.849.586 1.358 0 .509-.21.997-.586 1.357-.375.36-.884.563-1.414.563Zm4 3.84c-.53 0-1.04-.202-1.414-.563a1.882 1.882 0 0 1-.586-1.357c0-.51.21-.998.586-1.358.375-.36.883-.562 1.414-.562.53 0 1.039.202 1.414.562.375.36.586.849.586 1.358 0 .509-.21.997-.586 1.357-.375.36-.884.563-1.414.563Zm4-3.84c-.53 0-1.04-.203-1.414-.563a1.882 1.882 0 0 1-.586-1.357c0-.51.21-.998.586-1.358.375-.36.883-.562 1.414-.562.53 0 1.039.202 1.414.562.375.36.586.849.586 1.358 0 .509-.21.997-.586 1.357-.375.36-.884.563-1.414.563Z" fill="#CFCFCF"/></svg>