<svg width="40" height="40" fill="none" xmlns="http://www.w3.org/2000/svg"><path fill-rule="evenodd" clip-rule="evenodd" d="M19.955.846C8.937.846.007 9.776.007 20.794c0 8.812 5.714 16.29 13.642 18.93.998.18 1.358-.434 1.358-.962 0-.474-.016-1.73-.022-3.392-5.55 1.204-6.722-2.676-6.722-2.676-.904-2.304-2.214-2.918-2.214-2.918-1.81-1.238.138-1.21.138-1.21 2.004.14 3.054 2.056 3.054 2.056 1.78 3.048 4.672 2.168 5.804 1.658.182-1.29.702-2.17 1.27-2.668-4.428-.502-9.084-2.214-9.084-9.86 0-2.174.778-3.958 2.048-5.35-.202-.506-.892-2.536.198-5.28 0 0 1.674-.538 5.484 2.042a19.167 19.167 0 0 1 4.992-.672c1.686.003 3.365.229 4.992.672 3.812-2.582 5.484-2.042 5.484-2.042 1.09 2.744.406 4.774.198 5.28 1.28 1.392 2.048 3.174 2.048 5.35 0 7.666-4.66 9.35-9.104 9.844.71.616 1.35 1.832 1.35 3.692 0 2.668-.024 4.82-.024 5.474 0 .534.356 1.154 1.374.958 7.924-2.644 13.632-10.116 13.632-18.926 0-11.018-8.93-19.948-19.948-19.948Z" fill="#353535"/></svg>