<svg width="54" height="62" fill="none" xmlns="http://www.w3.org/2000/svg"><path d="m26.798 49.539-.001.007.02.015-.019-.02v-.002Z" fill="darkorange"/><path d="M53.091 38.166c-.119-1.99-.36-3.97-.72-5.933-.401-2.188-.939-4.338-1.783-6.4-.511-1.248-1.105-2.456-1.949-3.522-.546-.69-1.163-1.305-1.934-1.74-1.245-.705-2.484-.769-3.709-.181-.434-.767-.956-1.463-1.613-2.062a15.936 15.936 0 0 0-3.766-2.541c-1.098-.537-2.22-1.016-3.4-1.342-.012-.002-.021-.008-.032-.011.07-.06.141-.117.207-.182a11.94 11.94 0 0 0 1.921-2.469c.556-.942 1.111-1.886 1.694-2.813.547-.87 1.249-1.604 2.025-2.281.652-.57 1.295-.525 1.988-.145.354.194.661.446.91.763.357.456.608.968.771 1.522.089.304.04.365-.311.423-.147.024-.299.03-.443.068-.634.167-1.234.399-1.653.942-.351.455-.417.976-.17 1.39.284.478.711.703 1.256.62.75-.113 1.452-.348 1.97-.954.092-.108.162-.26.378-.232.645 1.2.748 2.595 1.231 3.89.319-.494.395-.715.416-1.26.04-1.008-.2-1.976-.452-2.94a1.34 1.34 0 0 0-.42-.697c-.28-.23-.376-.497-.307-.846.024-.12.01-.248.007-.373-.048-1.86-1.494-3.248-3.344-3.177a5.263 5.263 0 0 0-3.444 1.426 9.264 9.264 0 0 0-1.571 1.89c-.625.99-1.176 2.021-1.725 3.054a12.626 12.626 0 0 1-1.421 2.102 1.381 1.381 0 0 1-.227-.274 12.825 12.825 0 0 1-1.141-2.267c-.21-.56-.406-1.123-.61-1.685-.238-.657-.5-1.306-.895-1.886-1.135-1.668-2.667-2.495-4.72-2.173-.467.073-.93.17-1.395.258-.886.168-1.766.248-2.67.087-1.943-.346-3.486-1.286-4.556-2.956-.336-.524-.612-1.084-.935-1.617a18.12 18.12 0 0 0-.898-1.375c-.237-.321-.608-.342-.927-.117a.754.754 0 0 0-.115.095c-.53.563-1.037 1.145-1.425 1.819a1.5 1.5 0 0 0-.186.937c.031.27.081.543.158.804.539 1.828 1.732 3.187 3.225 4.277A10.52 10.52 0 0 0 20.008 9.8c.723.184 1.45.355 2.177.523.679.157 1.363.293 2.04.46.333.082.684.148.976.46-.034.38-.224.646-.407.907-.271.389-.579.752-.835 1.149-.079.123-.17.222-.268.309a4.537 4.537 0 0 0-1.291-.766c-1.074-.418-2.178-.484-3.304-.337-.789.103-1.567.273-2.342.456-.41.098-.829.168-1.248.219a6.223 6.223 0 0 1-3.211-.458c-.066-.114-.171-.144-.294-.138l-.015-.008c-.065-.107-.163-.148-.285-.14l-.017-.008c-.062-.11-.159-.152-.281-.146l-.015-.007c-.591-.453-1.315-.732-1.819-1.389.252.66.691 1.083 1.249 1.4.82.667 1.768 1.101 2.743 1.479.299.115.624.153.947.194 1.023.132 2.039.037 3.052-.082a23.322 23.322 0 0 1 3.279-.133 5.628 5.628 0 0 1 1.525.26c-1.12.18-2.21.48-3.274.873a15.433 15.433 0 0 0-5.623 3.594c-.201.2-.379.416-.548.64-.093-.059-.183-.12-.279-.175-.375-.21-.766-.363-1.194-.409-.931-.099-1.845-.014-2.719.323a8.313 8.313 0 0 0-3.378 2.403c-.728.855-1.373 1.779-1.866 2.791a50.015 50.015 0 0 0-1.266 2.793c-.657 1.593-1.118 3.25-1.545 4.918A22.145 22.145 0 0 0 0 37.304c.003 2.35.212 4.678.631 6.989.413 2.28 1.239 4.415 2.34 6.439 1.073 1.973 2.563 3.61 4.294 5.03.868.712 1.758 1.392 2.747 1.934a29.297 29.297 0 0 0 6.35 2.604c1.513.417 3.027.84 4.582 1.082 1.652.258 3.317.366 4.986.428.598.023 1.2-.014 1.794.044 1.299.128 2.595.014 3.882-.083a32.186 32.186 0 0 0 6.823-1.268c3.314-.991 6.326-2.552 8.982-4.776 1.153-.965 2.15-2.069 2.92-3.378.984-1.672 1.63-3.47 2.062-5.35.307-1.337.508-2.69.636-4.06.15-1.587.157-3.183.062-4.773Zm-9.499-27.331a3.738 3.738 0 0 1-.269.531c-.227.386-.403.497-.791.037-.356-.423-.308-1.08.084-1.505a.377.377 0 0 1 .279-.127c.054.01.13.015.2.038.789.26.803.237.497 1.026Zm-15.23 29.172c.03-.069.059-.137.097-.201 1.021-1.735 2.358-3.143 4.191-4.036a7.3 7.3 0 0 1 1.917-.604c1.641-.296 3.299-.508 4.925-.885.654-.152 1.321-.282 1.949-.51a9.917 9.917 0 0 0 4.152-2.835c.164-.189.316-.387.486-.569.145-.155.324-.226.54-.143.224.087.282.28.283.482.002.248-.017.5-.051.745-.326 2.374-.775 4.72-1.668 6.959a25.39 25.39 0 0 1-1.372 2.904 9.73 9.73 0 0 1-2.683 3.075c-.821.62-1.729 1.092-2.655 1.517-.773.354-1.617.492-2.622.511-.436.03-.998-.09-1.532-.306-1.064-.43-2.087-.933-3.001-1.65-1.307-1.024-2.216-2.344-2.948-3.81a.71.71 0 0 1-.008-.644ZM8.346 25.566c.399-.055.679.03.88.271.125.044.25.088.369.144.881.41 1.698.93 2.513 1.46 1.557 1.012 2.849 2.327 4.221 3.553.334.3.66.607.993.908 1.676 1.512 3.073 3.253 4.247 5.18a8.44 8.44 0 0 1 .748 1.623c.096.277.087.319-.16.504-1.257.943-2.556 1.818-4.022 2.412-.299.122-.602.24-.89.386-.749.38-1.542.54-2.377.557-.252.005-.503.002-.753-.008a.388.388 0 0 1-.057.005c-2.498-.004-4.565-1.29-5.498-3.532a8.483 8.483 0 0 1-.646-2.825c-.076-1.399.02-2.787.207-4.174.11-.813.167-1.635.213-2.455.054-.953-.111-1.885-.35-2.805-.05-.192-.116-.383-.139-.58-.038-.329.175-.58.501-.625Zm42.23 13.21a27.427 27.427 0 0 1-.918 5.444 16.11 16.11 0 0 1-1.923 4.36c-1.322 2.11-2.922 3.966-4.984 5.402-1.766 1.23-3.721 1.636-5.824 1.386-.848-.101-1.63-.445-2.37-.87-.151-.087-.294-.188-.441-.282-.064-.042-.138-.065-.194-.002-.026.03-.034.094-.022.134.093.31.186.621.293.926.241.681.491 1.36.737 2.038.034.093.073.185.09.282.032.18-.172.36-.327.282-.2-.099-.4-.206-.582-.336-1.339-.956-2.675-1.916-3.754-3.183-.273-.32-.608-.589-.925-.87-.169-.15-.317-.084-.358.15-.043.245-.077.493-.105.74-.138 1.189-.306 2.377-.129 3.577.015.1.022.2-.077.262-.098.061-.201.021-.282-.03a6.342 6.342 0 0 1-1.365-1.154c-.784-.877-1.472-1.816-1.991-2.881-.223-.457-.341-.987-.766-1.332-.43.26-.74.659-1.111.986-.803.71-1.586 1.444-2.391 2.15-.468.41-.949.809-1.514 1.087-.175.086-.284.016-.285-.188-.005-1.42-.006-2.842-.009-4.263v-.503c-.222-.139-.354.02-.495.093-1.884.973-3.83 1.8-5.83 2.502-.376.131-.757.25-1.141.353-.216.059-.438.07-.653-.051-.223-.126-.279-.256-.142-.476.488-.782.984-1.559 1.472-2.342.076-.121.202-.225.181-.401-.081-.138-.212-.072-.323-.063-2.446.21-4.36-.716-5.825-2.666-.969-1.29-1.481-2.757-1.78-4.313-.188-.98-.265-1.974-.291-2.972-.053-2.043-.125-4.087-.279-6.125-.124-1.643-.397-3.264-.711-4.88-.062-.317-.126-.636-.18-.954-.022-.13.017-.245.146-.315.094-.05.2-.087.265.01.11.164.212.338.284.52.592 1.511 1.08 3.055 1.361 4.655.215 1.227.393 2.46.592 3.69.344 2.13.923 4.184 1.976 6.083.486.875 1.065 1.68 1.792 2.378a2.1 2.1 0 0 0 1.624.614c.676-.03 1.333-.167 1.981-.356 1.178-.344 2.285-.852 3.341-1.472.817-.481 1.612-.994 2.341-1.603.095-.08.193-.159.298-.226.12-.077.238-.038.348.032.114.072.188.17.142.31-.054.164-.11.331-.183.488-.379.816-.776 1.618-1.363 2.311-.111.133-.194.288-.289.432-.019.015-.047.025-.057.045-.031.06-.092.136-.075.18.033.088.124.044.188.02.044-.017.08-.053.119-.08.502-.16.952-.427 1.393-.703.632-.395 1.247-.816 1.87-1.225.767-.505 1.532-1.014 2.302-1.514.243-.159.392-.108.535.165.08.154.155.313.219.474.675 1.68 1.578 3.238 2.579 4.74-.138-.748-.318-1.487-.329-2.257-.013-.875.022-1.744.198-2.602.019-.093.013-.206.127-.25.156-.06.225.069.298.157.158.192.308.392.453.594.89 1.235 1.82 2.435 2.938 3.48.36.336.632.764 1.085 1.093.093-.255.022-.46-.03-.66-.184-.7-.361-1.401-.444-2.12-.029-.254-.183-.517.01-.77.26.053.399.279.595.422.743.552 1.498 1.069 2.428 1.274.492.108.988.153 1.483.154.948 0 1.892-.093 2.824-.27 1.315-.252 2.522-.783 3.639-1.505 2.328-1.503 4.142-3.49 5.487-5.913.801-1.442 1.391-2.977 2.002-4.503.065-.163.109-.334.192-.486.1-.184.128-.513.384-.473.199.032.264.326.338.534.093.262.119.533.131.809.033.879.042 1.75-.014 2.622Z" fill="darkorange"/></svg>