<svg width="750" height="500" viewBox="0 0 750 500" fill="none" xmlns="http://www.w3.org/2000/svg">
<g opacity="0.1">
<mask id="mask0_2_730" style="mask-type:luminance" maskUnits="userSpaceOnUse" x="0" y="0" width="750" height="500">
<path d="M750 0H0V500H750V0Z" fill="white"/>
</mask>
<g mask="url(#mask0_2_730)">
<path d="M317.333 71.433C319.611 71.433 319.611 67.9 317.333 67.9C315.055 67.9 315.055 71.433 317.333 71.433Z" fill="white"/>
<path d="M199.333 250.332C201.611 250.332 201.611 246.799 199.333 246.799C197.055 246.799 197.055 250.332 199.333 250.332Z" fill="white"/>
<path d="M62 32.531C64.278 32.531 64.278 28.998 62 28.998C59.722 28.998 59.722 32.531 62 32.531Z" fill="white"/>
<path d="M138.667 285.865C140.945 285.865 140.945 282.332 138.667 282.332C136.389 282.332 136.389 285.865 138.667 285.865Z" fill="white"/>
<path d="M596 284.531C598.278 284.531 598.278 280.998 596 280.998C593.722 280.998 593.722 284.531 596 284.531Z" fill="white"/>
<path d="M95.334 110.998C97.612 110.998 97.612 107.465 95.334 107.465C93.055 107.465 93.055 110.998 95.334 110.998Z" fill="white"/>
<path d="M302.333 82.334C304.184 82.334 304.184 79.463 302.333 79.463C300.482 79.463 300.482 82.334 302.333 82.334Z" fill="white"/>
<path d="M208 201.203C209.851 201.203 209.851 198.332 208 198.332C206.149 198.332 206.149 201.203 208 201.203Z" fill="white"/>
<path d="M571.334 61.87C573.186 61.87 573.186 58.999 571.334 58.999C569.482 58.999 569.482 61.87 571.334 61.87Z" fill="white"/>
<path d="M52.667 40.332C54.519 40.332 54.519 37.461 52.667 37.461C50.815 37.461 50.815 40.332 52.667 40.332Z" fill="white"/>
<path d="M536.001 199.87C537.853 199.87 537.853 196.999 536.001 196.999C534.149 196.999 534.149 199.87 536.001 199.87Z" fill="white"/>
<path d="M726 45.87C727.852 45.87 727.852 42.999 726 42.999C724.148 42.999 724.148 45.87 726 45.87Z" fill="white"/>
<path d="M208.666 357.665C210.518 357.665 210.518 354.794 208.666 354.794C206.814 354.794 206.814 357.665 208.666 357.665Z" fill="white"/>
<path d="M367.332 116.331C369.184 116.331 369.184 113.46 367.332 113.46C365.48 113.46 365.48 116.331 367.332 116.331Z" fill="white"/>
<path d="M238.665 152.332C240.517 152.332 240.517 149.461 238.665 149.461C236.814 149.46 236.814 152.332 238.665 152.332Z" fill="white"/>
<path d="M244.667 20.333C246.945 20.333 246.945 16.8 244.667 16.8C242.389 16.799 242.389 20.333 244.667 20.333Z" fill="white"/>
<path d="M434 44.532C436.278 44.532 436.278 40.999 434 40.999C431.722 40.999 431.722 44.532 434 44.532Z" fill="white"/>
<path d="M456 109.866C458.278 109.866 458.278 106.333 456 106.333C453.722 106.332 453.722 109.866 456 109.866Z" fill="white"/>
<path d="M574.667 86.998C576.945 86.998 576.945 83.465 574.667 83.465C572.389 83.465 572.389 86.998 574.667 86.998Z" fill="white"/>
<path d="M534 213.865C536.278 213.865 536.278 210.332 534 210.332C531.722 210.332 531.722 213.865 534 213.865Z" fill="white"/>
<path d="M290.667 55.25C294.43 55.25 294.43 49.414 290.667 49.414C286.904 49.415 286.904 55.25 290.667 55.25Z" fill="white"/>
<path d="M460 58.584C463.764 58.584 463.764 52.748 460 52.748C456.236 52.748 456.236 58.584 460 58.584Z" fill="white"/>
<path d="M619.333 169.251C623.097 169.251 623.097 163.415 619.333 163.415C615.569 163.415 615.569 169.251 619.333 169.251Z" fill="white"/>
<path d="M658 34.999C661.764 34.999 661.764 29.163 658 29.163C654.236 29.163 654.236 34.999 658 34.999Z" fill="white"/>
<path d="M188.667 218.332C192.431 218.332 192.431 212.496 188.667 212.496C184.903 212.496 184.903 218.332 188.667 218.332Z" fill="white"/>
</g>
</g>
</svg>
